<?xml version="1.0" encoding="UTF-8" standalone="no"?>
<!DOCTYPE svg PUBLIC "-//W3C//DTD SVG 1.1//EN"
 "http://www.w3.org/Graphics/SVG/1.1/DTD/svg11.dtd">
<!-- Generated by graphviz version 14.1.4 (20260321.0153)
 -->
<!-- Title: ACAGN_Gate_Detail Pages: 1 -->
<svg width="3619pt" height="405pt"
 viewBox="0.00 0.00 3619.00 405.00" xmlns="http://www.w3.org/2000/svg" xmlns:xlink="http://www.w3.org/1999/xlink">
<g id="graph0" class="graph" transform="scale(1 1) rotate(0) translate(18 386.97)">
<title>ACAGN_Gate_Detail</title>
<polygon fill="white" stroke="none" points="-18,18 -18,-386.97 3600.82,-386.97 3600.82,18 -18,18"/>
<text xml:space="preserve" text-anchor="middle" x="1791.41" y="-353.57" font-family="Helvetica,sans-Serif" font-size="12.00">Diagram 2 — ACAGN&#45;Gate Detail (text&#45;guided feature gating)</text>
<!-- x_struct -->
<g id="node1" class="node">
<title>x_struct</title>
<polygon fill="#dbeafe" stroke="black" points="1594.52,-348.22 1400.12,-348.22 1400.12,-287.02 1594.52,-287.02 1594.52,-348.22"/>
<text xml:space="preserve" text-anchor="start" x="1454.94" y="-319.17" font-family="Helvetica,sans-Serif" font-size="11.00"> &#160;&#160;&#160;&#160;&#160;</text>
<text xml:space="preserve" text-anchor="start" x="1472.94" y="-319.17" font-family="Helvetica,sans-Serif" font-weight="bold" font-size="11.00">x_structured</text>
<text xml:space="preserve" text-anchor="start" x="1450.07" y="-308.17" font-family="Helvetica,sans-Serif" font-size="11.00"> &#160;&#160;&#160;&#160;&#160;</text>
<text xml:space="preserve" text-anchor="start" x="1468.07" y="-308.17" font-family="Helvetica,sans-Serif" font-size="10.00">160&#45;dim vector</text>
<text xml:space="preserve" text-anchor="start" x="1532.57" y="-308.17" font-family="Helvetica,sans-Serif" font-size="11.00"> &#160;&#160;&#160;</text>
</g>
<!-- mult -->
<g id="node8" class="node">
<title>mult</title>
<ellipse fill="#ffedd5" stroke="black" stroke-width="1.3" cx="1717.02" cy="-220.62" rx="27" ry="27"/>
<text xml:space="preserve" text-anchor="start" x="1691.14" y="-211.97" font-family="Helvetica,sans-Serif" font-size="11.00"> &#160;&#160;&#160;&#160;&#160;</text>
<text xml:space="preserve" text-anchor="start" x="1709.14" y="-211.97" font-family="Helvetica,sans-Serif" font-weight="bold" font-size="22.00">⊙</text>
<text xml:space="preserve" text-anchor="start" x="1730.89" y="-211.97" font-family="Helvetica,sans-Serif" font-size="11.00"> &#160;&#160;&#160;</text>
</g>
<!-- x_struct&#45;&gt;mult -->
<g id="edge6" class="edge">
<title>x_struct&#45;&gt;mult</title>
<path fill="none" stroke="black" d="M1568.1,-286.53C1606.7,-269.33 1652.86,-248.77 1683.22,-235.23"/>
<polygon fill="black" stroke="black" points="1684.18,-237.87 1690.35,-232.06 1681.9,-232.76 1684.18,-237.87"/>
<text xml:space="preserve" text-anchor="middle" x="1642.27" y="-265.06" font-family="Helvetica,sans-Serif" font-size="10.00">160&#45;dim</text>
</g>
<!-- e_text -->
<g id="node2" class="node">
<title>e_text</title>
<polygon fill="#dcfce7" stroke="black" points="232.34,-180.22 37.94,-180.22 37.94,-119.02 232.34,-119.02 232.34,-180.22"/>
<text xml:space="preserve" text-anchor="start" x="110.39" y="-151.17" font-family="Helvetica,sans-Serif" font-size="11.00"> &#160;&#160;&#160;&#160;&#160;</text>
<text xml:space="preserve" text-anchor="start" x="128.39" y="-151.17" font-family="Helvetica,sans-Serif" font-weight="bold" font-size="11.00">e_text</text>
<text xml:space="preserve" text-anchor="start" x="87.89" y="-140.17" font-family="Helvetica,sans-Serif" font-size="11.00"> &#160;&#160;&#160;&#160;&#160;</text>
<text xml:space="preserve" text-anchor="start" x="105.89" y="-140.17" font-family="Helvetica,sans-Serif" font-size="10.00">515&#45;dim vector</text>
<text xml:space="preserve" text-anchor="start" x="170.39" y="-140.17" font-family="Helvetica,sans-Serif" font-size="11.00"> &#160;&#160;&#160;</text>
</g>
<!-- g_lin1 -->
<g id="node3" class="node">
<title>g_lin1</title>
<polygon fill="#dcfce7" stroke="black" points="539.17,-251.22 344.77,-251.22 344.77,-190.02 539.17,-190.02 539.17,-251.22"/>
<text xml:space="preserve" text-anchor="start" x="416.47" y="-222.17" font-family="Helvetica,sans-Serif" font-size="11.00"> &#160;&#160;&#160;&#160;&#160;</text>
<text xml:space="preserve" text-anchor="start" x="434.47" y="-222.17" font-family="Helvetica,sans-Serif" font-weight="bold" font-size="11.00">Linear</text>
<text xml:space="preserve" text-anchor="start" x="403.34" y="-211.17" font-family="Helvetica,sans-Serif" font-size="11.00"> &#160;&#160;&#160;&#160;&#160;</text>
<text xml:space="preserve" text-anchor="start" x="421.34" y="-211.17" font-family="Helvetica,sans-Serif" font-size="10.00">515 → 256</text>
<text xml:space="preserve" text-anchor="start" x="468.59" y="-211.17" font-family="Helvetica,sans-Serif" font-size="11.00"> &#160;&#160;&#160;</text>
</g>
<!-- e_text&#45;&gt;g_lin1 -->
<g id="edge1" class="edge">
<title>e_text&#45;&gt;g_lin1</title>
<path fill="none" stroke="black" d="M232.59,-172.09C265.33,-179.71 302.08,-188.27 335.49,-196.05"/>
<polygon fill="black" stroke="black" points="334.46,-198.69 342.89,-197.78 335.73,-193.24 334.46,-198.69"/>
<text xml:space="preserve" text-anchor="middle" x="307.52" y="-193.23" font-family="Helvetica,sans-Serif" font-size="10.00">515&#45;dim</text>
</g>
<!-- concat -->
<g id="node11" class="node">
<title>concat</title>
<polygon fill="#ffedd5" stroke="black" points="2305.07,-195.22 2110.67,-195.22 2110.67,-134.02 2305.07,-134.02 2305.07,-195.22"/>
<text xml:space="preserve" text-anchor="start" x="2165.87" y="-166.17" font-family="Helvetica,sans-Serif" font-size="11.00"> &#160;&#160;&#160;&#160;&#160;</text>
<text xml:space="preserve" text-anchor="start" x="2183.87" y="-166.17" font-family="Helvetica,sans-Serif" font-weight="bold" font-size="11.00">Concatenate</text>
<text xml:space="preserve" text-anchor="start" x="2162.12" y="-155.17" font-family="Helvetica,sans-Serif" font-size="11.00"> &#160;&#160;&#160;&#160;&#160;</text>
<text xml:space="preserve" text-anchor="start" x="2180.12" y="-155.17" font-family="Helvetica,sans-Serif" font-size="10.00">675&#45;dim fused</text>
<text xml:space="preserve" text-anchor="start" x="2241.62" y="-155.17" font-family="Helvetica,sans-Serif" font-size="11.00"> &#160;&#160;&#160;</text>
</g>
<!-- e_text&#45;&gt;concat -->
<g id="edge10" class="edge">
<title>e_text&#45;&gt;concat</title>
<path fill="none" stroke="black" d="M232.52,-142.45C292.47,-138.59 371.16,-134.62 440.97,-134.62 440.97,-134.62 440.97,-134.62 1939.97,-134.62 1993.19,-134.62 2052.02,-140.59 2100.86,-147.2"/>
<polygon fill="black" stroke="black" points="2100.37,-149.95 2108.68,-148.27 2101.14,-144.41 2100.37,-149.95"/>
<text xml:space="preserve" text-anchor="middle" x="1225.42" y="-136.37" font-family="Helvetica,sans-Serif" font-size="10.00">e_text</text>
</g>
<!-- g_relu -->
<g id="node4" class="node">
<title>g_relu</title>
<polygon fill="#dcfce7" stroke="black" points="802.07,-251.22 607.67,-251.22 607.67,-190.02 802.07,-190.02 802.07,-251.22"/>
<text xml:space="preserve" text-anchor="start" x="681.24" y="-222.17" font-family="Helvetica,sans-Serif" font-size="11.00"> &#160;&#160;&#160;&#160;&#160;</text>
<text xml:space="preserve" text-anchor="start" x="699.24" y="-222.17" font-family="Helvetica,sans-Serif" font-weight="bold" font-size="11.00">ReLU</text>
<text xml:space="preserve" text-anchor="start" x="668.87" y="-211.17" font-family="Helvetica,sans-Serif" font-size="11.00"> &#160;&#160;&#160;&#160;&#160;</text>
<text xml:space="preserve" text-anchor="start" x="686.87" y="-211.17" font-family="Helvetica,sans-Serif" font-size="10.00">activation</text>
<text xml:space="preserve" text-anchor="start" x="728.87" y="-211.17" font-family="Helvetica,sans-Serif" font-size="11.00"> &#160;&#160;&#160;</text>
</g>
<!-- g_lin1&#45;&gt;g_relu -->
<g id="edge2" class="edge">
<title>g_lin1&#45;&gt;g_relu</title>
<path fill="none" stroke="black" d="M539.38,-220.62C558.46,-220.62 578.6,-220.62 597.98,-220.62"/>
<polygon fill="black" stroke="black" points="597.91,-223.42 605.91,-220.62 597.91,-217.82 597.91,-223.42"/>
<text xml:space="preserve" text-anchor="middle" x="573.42" y="-222.37" font-family="Helvetica,sans-Serif" font-size="10.00">hidden</text>
</g>
<!-- g_lin2 -->
<g id="node5" class="node">
<title>g_lin2</title>
<polygon fill="#dcfce7" stroke="black" points="1064.97,-251.22 870.57,-251.22 870.57,-190.02 1064.97,-190.02 1064.97,-251.22"/>
<text xml:space="preserve" text-anchor="start" x="942.27" y="-222.17" font-family="Helvetica,sans-Serif" font-size="11.00"> &#160;&#160;&#160;&#160;&#160;</text>
<text xml:space="preserve" text-anchor="start" x="960.27" y="-222.17" font-family="Helvetica,sans-Serif" font-weight="bold" font-size="11.00">Linear</text>
<text xml:space="preserve" text-anchor="start" x="929.14" y="-211.17" font-family="Helvetica,sans-Serif" font-size="11.00"> &#160;&#160;&#160;&#160;&#160;</text>
<text xml:space="preserve" text-anchor="start" x="947.14" y="-211.17" font-family="Helvetica,sans-Serif" font-size="10.00">256 → 160</text>
<text xml:space="preserve" text-anchor="start" x="994.39" y="-211.17" font-family="Helvetica,sans-Serif" font-size="11.00"> &#160;&#160;&#160;</text>
</g>
<!-- g_relu&#45;&gt;g_lin2 -->
<g id="edge3" class="edge">
<title>g_relu&#45;&gt;g_lin2</title>
<path fill="none" stroke="black" d="M802.28,-220.62C821.36,-220.62 841.5,-220.62 860.88,-220.62"/>
<polygon fill="black" stroke="black" points="860.81,-223.42 868.81,-220.62 860.81,-217.82 860.81,-223.42"/>
<text xml:space="preserve" text-anchor="middle" x="836.32" y="-222.37" font-family="Helvetica,sans-Serif" font-size="10.00">hidden</text>
</g>
<!-- g_sig -->
<g id="node6" class="node">
<title>g_sig</title>
<polygon fill="#dcfce7" stroke="black" points="1322.62,-251.22 1128.22,-251.22 1128.22,-190.02 1322.62,-190.02 1322.62,-251.22"/>
<text xml:space="preserve" text-anchor="start" x="1194.67" y="-222.17" font-family="Helvetica,sans-Serif" font-size="11.00"> &#160;&#160;&#160;&#160;&#160;</text>
<text xml:space="preserve" text-anchor="start" x="1212.67" y="-222.17" font-family="Helvetica,sans-Serif" font-weight="bold" font-size="11.00">Sigmoid</text>
<text xml:space="preserve" text-anchor="start" x="1202.92" y="-211.17" font-family="Helvetica,sans-Serif" font-size="11.00"> &#160;&#160;&#160;&#160;&#160;</text>
<text xml:space="preserve" text-anchor="start" x="1220.92" y="-211.17" font-family="Helvetica,sans-Serif" font-size="10.00">σ(·)</text>
<text xml:space="preserve" text-anchor="start" x="1235.92" y="-211.17" font-family="Helvetica,sans-Serif" font-size="11.00"> &#160;&#160;&#160;</text>
</g>
<!-- g_lin2&#45;&gt;g_sig -->
<g id="edge4" class="edge">
<title>g_lin2&#45;&gt;g_sig</title>
<path fill="none" stroke="black" d="M1065.42,-220.62C1082.88,-220.62 1101.17,-220.62 1118.86,-220.62"/>
<polygon fill="black" stroke="black" points="1118.54,-223.42 1126.54,-220.62 1118.54,-217.82 1118.54,-223.42"/>
<text xml:space="preserve" text-anchor="middle" x="1096.59" y="-222.37" font-family="Helvetica,sans-Serif" font-size="10.00">logits</text>
</g>
<!-- g_vec -->
<g id="node7" class="node">
<title>g_vec</title>
<polygon fill="#dcfce7" stroke="black" points="1594.52,-251.22 1400.12,-251.22 1400.12,-190.02 1594.52,-190.02 1594.52,-251.22"/>
<text xml:space="preserve" text-anchor="start" x="1484.94" y="-222.17" font-family="Helvetica,sans-Serif" font-size="11.00"> &#160;&#160;&#160;&#160;&#160;</text>
<text xml:space="preserve" text-anchor="start" x="1502.94" y="-222.17" font-family="Helvetica,sans-Serif" font-weight="bold" font-size="11.00">g</text>
<text xml:space="preserve" text-anchor="start" x="1462.44" y="-211.17" font-family="Helvetica,sans-Serif" font-size="11.00"> &#160;&#160;&#160;&#160;&#160;</text>
<text xml:space="preserve" text-anchor="start" x="1480.44" y="-211.17" font-family="Helvetica,sans-Serif" font-size="10.00">(0,1)^160</text>
<text xml:space="preserve" text-anchor="start" x="1520.19" y="-211.17" font-family="Helvetica,sans-Serif" font-size="11.00"> &#160;&#160;&#160;</text>
</g>
<!-- g_sig&#45;&gt;g_vec -->
<g id="edge5" class="edge">
<title>g_sig&#45;&gt;g_vec</title>
<path fill="none" stroke="black" d="M1323.1,-220.62C1344.94,-220.62 1368.23,-220.62 1390.43,-220.62"/>
<polygon fill="black" stroke="black" points="1390.35,-223.42 1398.35,-220.62 1390.35,-217.82 1390.35,-223.42"/>
<text xml:space="preserve" text-anchor="middle" x="1361.37" y="-222.37" font-family="Helvetica,sans-Serif" font-size="10.00">gate vec</text>
</g>
<!-- g_vec&#45;&gt;mult -->
<g id="edge7" class="edge">
<title>g_vec&#45;&gt;mult</title>
<path fill="none" stroke="black" d="M1594.76,-220.62C1625.21,-220.62 1656.97,-220.62 1680.35,-220.62"/>
<polygon fill="black" stroke="black" points="1680.31,-223.42 1688.31,-220.62 1680.31,-217.82 1680.31,-223.42"/>
<text xml:space="preserve" text-anchor="middle" x="1642.27" y="-222.37" font-family="Helvetica,sans-Serif" font-size="10.00">gate weights</text>
</g>
<!-- eq_box -->
<g id="node9" class="node">
<title>eq_box</title>
<polygon fill="white" stroke="black" points="270.27,-82.22 0,-82.22 0,-21.02 270.27,-21.02 270.27,-82.22"/>
<text xml:space="preserve" text-anchor="start" x="86.01" y="-53.17" font-family="Helvetica,sans-Serif" font-size="11.00"> &#160;&#160;&#160;&#160;&#160;</text>
<text xml:space="preserve" text-anchor="start" x="104.01" y="-53.17" font-family="Helvetica,sans-Serif" font-weight="bold" font-size="11.00">Gate Equations</text>
<text xml:space="preserve" text-anchor="start" x="5.76" y="-42.17" font-family="Helvetica,sans-Serif" font-size="11.00"> &#160;&#160;&#160;&#160;&#160;</text>
<text xml:space="preserve" text-anchor="start" x="23.76" y="-42.17" font-family="Helvetica,sans-Serif" font-size="10.00">g=σ(W₂·ReLU(W₁·e_text)); x_gated=g⊙x_structured</text>
<text xml:space="preserve" text-anchor="start" x="252.51" y="-42.17" font-family="Helvetica,sans-Serif" font-size="11.00"> &#160;&#160;&#160;</text>
</g>
<!-- g_vec&#45;&gt;eq_box -->
<g id="edge16" class="edge">
<title>g_vec&#45;&gt;eq_box</title>
<path fill="none" stroke="black" stroke-dasharray="5,2" d="M1467.49,-189.72C1435.56,-157.9 1380.86,-110.16 1322.62,-89.62 959.9,38.31 495.48,-0.09 270.4,-30.29"/>
</g>
<!-- x_gated -->
<g id="node10" class="node">
<title>x_gated</title>
<polygon fill="#dbeafe" stroke="black" points="2036.17,-251.22 1841.77,-251.22 1841.77,-190.02 2036.17,-190.02 2036.17,-251.22"/>
<text xml:space="preserve" text-anchor="start" x="1909.34" y="-222.17" font-family="Helvetica,sans-Serif" font-size="11.00"> &#160;&#160;&#160;&#160;&#160;</text>
<text xml:space="preserve" text-anchor="start" x="1927.34" y="-222.17" font-family="Helvetica,sans-Serif" font-weight="bold" font-size="11.00">x_gated</text>
<text xml:space="preserve" text-anchor="start" x="1886.47" y="-211.17" font-family="Helvetica,sans-Serif" font-size="11.00"> &#160;&#160;&#160;&#160;&#160;</text>
<text xml:space="preserve" text-anchor="start" x="1904.47" y="-211.17" font-family="Helvetica,sans-Serif" font-size="10.00">g ⊙ x_structured</text>
<text xml:space="preserve" text-anchor="start" x="1979.47" y="-211.17" font-family="Helvetica,sans-Serif" font-size="11.00"> &#160;&#160;&#160;</text>
</g>
<!-- mult&#45;&gt;x_gated -->
<g id="edge8" class="edge">
<title>mult&#45;&gt;x_gated</title>
<path fill="none" stroke="black" d="M1744.55,-220.62C1766.64,-220.62 1799.62,-220.62 1832.13,-220.62"/>
<polygon fill="black" stroke="black" points="1831.76,-223.42 1839.76,-220.62 1831.76,-217.82 1831.76,-223.42"/>
<text xml:space="preserve" text-anchor="middle" x="1792.89" y="-222.37" font-family="Helvetica,sans-Serif" font-size="10.00">element&#45;wise</text>
</g>
<!-- x_gated&#45;&gt;concat -->
<g id="edge9" class="edge">
<title>x_gated&#45;&gt;concat</title>
<path fill="none" stroke="black" d="M2036.33,-200.4C2057.36,-195.99 2079.73,-191.3 2101.11,-186.81"/>
<polygon fill="black" stroke="black" points="2101.47,-189.6 2108.73,-185.21 2100.32,-184.12 2101.47,-189.6"/>
<text xml:space="preserve" text-anchor="middle" x="2073.42" y="-197.72" font-family="Helvetica,sans-Serif" font-size="10.00">x_gated</text>
</g>
<!-- fc1 -->
<g id="node12" class="node">
<title>fc1</title>
<polygon fill="#ffedd5" stroke="black" points="2573.97,-195.22 2379.57,-195.22 2379.57,-134.02 2573.97,-134.02 2573.97,-195.22"/>
<text xml:space="preserve" text-anchor="start" x="2457.27" y="-166.17" font-family="Helvetica,sans-Serif" font-size="11.00"> &#160;&#160;&#160;&#160;&#160;</text>
<text xml:space="preserve" text-anchor="start" x="2475.27" y="-166.17" font-family="Helvetica,sans-Serif" font-weight="bold" font-size="11.00">FC1</text>
<text xml:space="preserve" text-anchor="start" x="2390.52" y="-155.17" font-family="Helvetica,sans-Serif" font-size="11.00"> &#160;&#160;&#160;&#160;&#160;</text>
<text xml:space="preserve" text-anchor="start" x="2408.52" y="-155.17" font-family="Helvetica,sans-Serif" font-size="10.00">675 → 512, BN, ReLU, Drop 0.3</text>
<text xml:space="preserve" text-anchor="start" x="2551.02" y="-155.17" font-family="Helvetica,sans-Serif" font-size="11.00"> &#160;&#160;&#160;</text>
</g>
<!-- concat&#45;&gt;fc1 -->
<g id="edge11" class="edge">
<title>concat&#45;&gt;fc1</title>
<path fill="none" stroke="black" d="M2305.23,-164.62C2326.17,-164.62 2348.43,-164.62 2369.73,-164.62"/>
<polygon fill="black" stroke="black" points="2369.59,-167.42 2377.59,-164.62 2369.59,-161.82 2369.59,-167.42"/>
<text xml:space="preserve" text-anchor="middle" x="2342.32" y="-166.37" font-family="Helvetica,sans-Serif" font-size="10.00">675&#45;dim</text>
</g>
<!-- fc2 -->
<g id="node13" class="node">
<title>fc2</title>
<polygon fill="#ffedd5" stroke="black" points="2824.12,-195.22 2629.72,-195.22 2629.72,-134.02 2824.12,-134.02 2824.12,-195.22"/>
<text xml:space="preserve" text-anchor="start" x="2707.42" y="-166.17" font-family="Helvetica,sans-Serif" font-size="11.00"> &#160;&#160;&#160;&#160;&#160;</text>
<text xml:space="preserve" text-anchor="start" x="2725.42" y="-166.17" font-family="Helvetica,sans-Serif" font-weight="bold" font-size="11.00">FC2</text>
<text xml:space="preserve" text-anchor="start" x="2640.67" y="-155.17" font-family="Helvetica,sans-Serif" font-size="11.00"> &#160;&#160;&#160;&#160;&#160;</text>
<text xml:space="preserve" text-anchor="start" x="2658.67" y="-155.17" font-family="Helvetica,sans-Serif" font-size="10.00">512 → 256, BN, ReLU, Drop 0.3</text>
<text xml:space="preserve" text-anchor="start" x="2801.17" y="-155.17" font-family="Helvetica,sans-Serif" font-size="11.00"> &#160;&#160;&#160;</text>
</g>
<!-- fc1&#45;&gt;fc2 -->
<g id="edge12" class="edge">
<title>fc1&#45;&gt;fc2</title>
<path fill="none" stroke="black" d="M2574.42,-164.62C2589.41,-164.62 2604.96,-164.62 2620.14,-164.62"/>
<polygon fill="black" stroke="black" points="2620.02,-167.42 2628.02,-164.62 2620.02,-161.82 2620.02,-167.42"/>
<text xml:space="preserve" text-anchor="middle" x="2601.84" y="-166.37" font-family="Helvetica,sans-Serif" font-size="10.00">512</text>
</g>
<!-- fc3 -->
<g id="node14" class="node">
<title>fc3</title>
<polygon fill="#ffedd5" stroke="black" points="3074.27,-195.22 2879.87,-195.22 2879.87,-134.02 3074.27,-134.02 3074.27,-195.22"/>
<text xml:space="preserve" text-anchor="start" x="2957.57" y="-166.17" font-family="Helvetica,sans-Serif" font-size="11.00"> &#160;&#160;&#160;&#160;&#160;</text>
<text xml:space="preserve" text-anchor="start" x="2975.57" y="-166.17" font-family="Helvetica,sans-Serif" font-weight="bold" font-size="11.00">FC3</text>
<text xml:space="preserve" text-anchor="start" x="2900.94" y="-155.17" font-family="Helvetica,sans-Serif" font-size="11.00"> &#160;&#160;&#160;&#160;&#160;</text>
<text xml:space="preserve" text-anchor="start" x="2918.94" y="-155.17" font-family="Helvetica,sans-Serif" font-size="10.00">256 → 128, ReLU, Drop 0.2</text>
<text xml:space="preserve" text-anchor="start" x="3041.19" y="-155.17" font-family="Helvetica,sans-Serif" font-size="11.00"> &#160;&#160;&#160;</text>
</g>
<!-- fc2&#45;&gt;fc3 -->
<g id="edge13" class="edge">
<title>fc2&#45;&gt;fc3</title>
<path fill="none" stroke="black" d="M2824.57,-164.62C2839.56,-164.62 2855.11,-164.62 2870.29,-164.62"/>
<polygon fill="black" stroke="black" points="2870.17,-167.42 2878.17,-164.62 2870.17,-161.82 2870.17,-167.42"/>
<text xml:space="preserve" text-anchor="middle" x="2851.99" y="-166.37" font-family="Helvetica,sans-Serif" font-size="10.00">256</text>
</g>
<!-- out -->
<g id="node15" class="node">
<title>out</title>
<polygon fill="#ffedd5" stroke="black" points="3324.42,-195.22 3130.02,-195.22 3130.02,-134.02 3324.42,-134.02 3324.42,-195.22"/>
<text xml:space="preserve" text-anchor="start" x="3200.22" y="-166.17" font-family="Helvetica,sans-Serif" font-size="11.00"> &#160;&#160;&#160;&#160;&#160;</text>
<text xml:space="preserve" text-anchor="start" x="3218.22" y="-166.17" font-family="Helvetica,sans-Serif" font-weight="bold" font-size="11.00">Output</text>
<text xml:space="preserve" text-anchor="start" x="3173.22" y="-155.17" font-family="Helvetica,sans-Serif" font-size="11.00"> &#160;&#160;&#160;&#160;&#160;</text>
<text xml:space="preserve" text-anchor="start" x="3191.22" y="-155.17" font-family="Helvetica,sans-Serif" font-size="10.00">128 → 1, Sigmoid</text>
<text xml:space="preserve" text-anchor="start" x="3269.22" y="-155.17" font-family="Helvetica,sans-Serif" font-size="11.00"> &#160;&#160;&#160;</text>
</g>
<!-- fc3&#45;&gt;out -->
<g id="edge14" class="edge">
<title>fc3&#45;&gt;out</title>
<path fill="none" stroke="black" d="M3074.72,-164.62C3089.71,-164.62 3105.26,-164.62 3120.44,-164.62"/>
<polygon fill="black" stroke="black" points="3120.32,-167.42 3128.32,-164.62 3120.32,-161.82 3120.32,-167.42"/>
<text xml:space="preserve" text-anchor="middle" x="3102.14" y="-166.37" font-family="Helvetica,sans-Serif" font-size="10.00">128</text>
</g>
<!-- yhat -->
<g id="node16" class="node">
<title>yhat</title>
<polygon fill="#ffedd5" stroke="black" points="3582.82,-195.22 3388.42,-195.22 3388.42,-134.02 3582.82,-134.02 3582.82,-195.22"/>
<text xml:space="preserve" text-anchor="start" x="3473.62" y="-166.17" font-family="Helvetica,sans-Serif" font-size="11.00"> &#160;&#160;&#160;&#160;&#160;</text>
<text xml:space="preserve" text-anchor="start" x="3491.62" y="-166.17" font-family="Helvetica,sans-Serif" font-weight="bold" font-size="11.00">ŷ</text>
<text xml:space="preserve" text-anchor="start" x="3434.99" y="-155.17" font-family="Helvetica,sans-Serif" font-size="11.00"> &#160;&#160;&#160;&#160;&#160;</text>
<text xml:space="preserve" text-anchor="start" x="3452.99" y="-155.17" font-family="Helvetica,sans-Serif" font-size="10.00">readmission risk</text>
<text xml:space="preserve" text-anchor="start" x="3524.24" y="-155.17" font-family="Helvetica,sans-Serif" font-size="11.00"> &#160;&#160;&#160;</text>
</g>
<!-- out&#45;&gt;yhat -->
<g id="edge15" class="edge">
<title>out&#45;&gt;yhat</title>
<path fill="none" stroke="black" d="M3324.79,-164.62C3342.44,-164.62 3360.94,-164.62 3378.84,-164.62"/>
<polygon fill="black" stroke="black" points="3378.63,-167.42 3386.62,-164.62 3378.62,-161.82 3378.63,-167.42"/>
<text xml:space="preserve" text-anchor="middle" x="3356.42" y="-166.37" font-family="Helvetica,sans-Serif" font-size="10.00">risk p̂</text>
</g>
</g>
</svg>
