<?xml version="1.0" encoding="UTF-8" standalone="no"?>
<!DOCTYPE svg PUBLIC "-//W3C//DTD SVG 1.1//EN"
 "http://www.w3.org/Graphics/SVG/1.1/DTD/svg11.dtd">
<!-- Generated by graphviz version 14.1.4 (20260321.0153)
 -->
<!-- Title: ACAGN_System_Overview Pages: 1 -->
<svg width="996pt" height="611pt"
 viewBox="0.00 0.00 996.00 611.00" xmlns="http://www.w3.org/2000/svg" xmlns:xlink="http://www.w3.org/1999/xlink">
<g id="graph0" class="graph" transform="scale(1 1) rotate(0) translate(18 593.2)">
<title>ACAGN_System_Overview</title>
<polygon fill="white" stroke="none" points="-18,18 -18,-593.2 978,-593.2 978,18 -18,18"/>
<text xml:space="preserve" text-anchor="middle" x="480" y="-559.8" font-family="Helvetica,sans-Serif" font-size="12.00">Diagram 1 — System Overview (ACAGN pipeline: raw data → outputs)</text>
<!-- mimic_struct -->
<g id="node1" class="node">
<title>mimic_struct</title>
<polygon fill="#dbeafe" stroke="black" points="459,-552.2 243,-552.2 243,-485.96 459,-485.96 459,-552.2"/>
<text xml:space="preserve" text-anchor="start" x="270.75" y="-520.63" font-family="Helvetica,sans-Serif" font-size="11.00"> &#160;&#160;&#160;&#160;&#160;</text>
<text xml:space="preserve" text-anchor="start" x="288.75" y="-520.63" font-family="Helvetica,sans-Serif" font-weight="bold" font-size="11.00">MIMIC&#45;IV Structured Tables</text>
<text xml:space="preserve" text-anchor="start" x="284.62" y="-509.63" font-family="Helvetica,sans-Serif" font-size="11.00"> &#160;&#160;&#160;&#160;&#160;</text>
<text xml:space="preserve" text-anchor="start" x="302.62" y="-509.63" font-family="Helvetica,sans-Serif" font-size="10.00">admissions, labs, vitals</text>
<text xml:space="preserve" text-anchor="start" x="405.38" y="-509.63" font-family="Helvetica,sans-Serif" font-size="11.00"> &#160;&#160;&#160;</text>
</g>
<!-- feat_eng -->
<g id="node3" class="node">
<title>feat_eng</title>
<polygon fill="#dbeafe" stroke="black" points="459,-430.71 243,-430.71 243,-364.47 459,-364.47 459,-430.71"/>
<text xml:space="preserve" text-anchor="start" x="259.12" y="-399.14" font-family="Helvetica,sans-Serif" font-size="11.00"> &#160;&#160;&#160;&#160;&#160;</text>
<text xml:space="preserve" text-anchor="start" x="277.12" y="-399.14" font-family="Helvetica,sans-Serif" font-weight="bold" font-size="11.00">Structured Feature Engineering</text>
<text xml:space="preserve" text-anchor="start" x="294.38" y="-388.14" font-family="Helvetica,sans-Serif" font-size="11.00"> &#160;&#160;&#160;&#160;&#160;</text>
<text xml:space="preserve" text-anchor="start" x="312.38" y="-388.14" font-family="Helvetica,sans-Serif" font-size="10.00">675 → 128 (58+70)</text>
<text xml:space="preserve" text-anchor="start" x="395.62" y="-388.14" font-family="Helvetica,sans-Serif" font-size="11.00"> &#160;&#160;&#160;</text>
</g>
<!-- mimic_struct&#45;&gt;feat_eng -->
<g id="edge1" class="edge">
<title>mimic_struct&#45;&gt;feat_eng</title>
<path fill="none" stroke="black" d="M351,-485.74C351,-471.8 351,-455.31 351,-440.44"/>
<polygon fill="black" stroke="black" points="353.8,-440.47 351,-432.47 348.2,-440.47 353.8,-440.47"/>
<text xml:space="preserve" text-anchor="middle" x="371.25" y="-454.46" font-family="Helvetica,sans-Serif" font-size="10.00">raw EHR</text>
</g>
<!-- mimic_notes -->
<g id="node2" class="node">
<title>mimic_notes</title>
<polygon fill="#dcfce7" stroke="black" points="713,-552.2 497,-552.2 497,-485.96 713,-485.96 713,-552.2"/>
<text xml:space="preserve" text-anchor="start" x="517.62" y="-520.63" font-family="Helvetica,sans-Serif" font-size="11.00"> &#160;&#160;&#160;&#160;&#160;</text>
<text xml:space="preserve" text-anchor="start" x="535.62" y="-520.63" font-family="Helvetica,sans-Serif" font-weight="bold" font-size="11.00">Clinical Notes (MIMIC&#45;IV&#45;Note)</text>
<text xml:space="preserve" text-anchor="start" x="546.5" y="-509.63" font-family="Helvetica,sans-Serif" font-size="11.00"> &#160;&#160;&#160;&#160;&#160;</text>
<text xml:space="preserve" text-anchor="start" x="564.5" y="-509.63" font-family="Helvetica,sans-Serif" font-size="10.00">discharge, radiology</text>
<text xml:space="preserve" text-anchor="start" x="651.5" y="-509.63" font-family="Helvetica,sans-Serif" font-size="11.00"> &#160;&#160;&#160;</text>
</g>
<!-- ct5_embed -->
<g id="node4" class="node">
<title>ct5_embed</title>
<polygon fill="#dcfce7" stroke="black" points="713,-430.71 497,-430.71 497,-364.47 713,-364.47 713,-430.71"/>
<text xml:space="preserve" text-anchor="start" x="538.62" y="-399.14" font-family="Helvetica,sans-Serif" font-size="11.00"> &#160;&#160;&#160;&#160;&#160;</text>
<text xml:space="preserve" text-anchor="start" x="556.62" y="-399.14" font-family="Helvetica,sans-Serif" font-weight="bold" font-size="11.00">ClinicalT5 Embedding</text>
<text xml:space="preserve" text-anchor="start" x="517.62" y="-388.14" font-family="Helvetica,sans-Serif" font-size="11.00"> &#160;&#160;&#160;&#160;&#160;</text>
<text xml:space="preserve" text-anchor="start" x="535.62" y="-388.14" font-family="Helvetica,sans-Serif" font-size="10.00">200w + mean pool → 512 + PCA</text>
<text xml:space="preserve" text-anchor="start" x="680.38" y="-388.14" font-family="Helvetica,sans-Serif" font-size="11.00"> &#160;&#160;&#160;</text>
</g>
<!-- mimic_notes&#45;&gt;ct5_embed -->
<g id="edge2" class="edge">
<title>mimic_notes&#45;&gt;ct5_embed</title>
<path fill="none" stroke="black" d="M605,-485.74C605,-471.8 605,-455.31 605,-440.44"/>
<polygon fill="black" stroke="black" points="607.8,-440.47 605,-432.47 602.2,-440.47 607.8,-440.47"/>
<text xml:space="preserve" text-anchor="middle" x="626.38" y="-454.46" font-family="Helvetica,sans-Serif" font-size="10.00">raw notes</text>
</g>
<!-- base -->
<g id="node5" class="node">
<title>base</title>
<polygon fill="#ffedd5" stroke="black" points="459,-309.22 243,-309.22 243,-242.98 459,-242.98 459,-309.22"/>
<text xml:space="preserve" text-anchor="start" x="306.38" y="-277.65" font-family="Helvetica,sans-Serif" font-size="11.00"> &#160;&#160;&#160;&#160;&#160;</text>
<text xml:space="preserve" text-anchor="start" x="324.38" y="-277.65" font-family="Helvetica,sans-Serif" font-weight="bold" font-size="11.00">ACAGN&#45;Base</text>
<text xml:space="preserve" text-anchor="start" x="273" y="-266.65" font-family="Helvetica,sans-Serif" font-size="11.00"> &#160;&#160;&#160;&#160;&#160;</text>
<text xml:space="preserve" text-anchor="start" x="291" y="-266.65" font-family="Helvetica,sans-Serif" font-size="10.00">LGBM+XGB+Cat + LR + iso</text>
<text xml:space="preserve" text-anchor="start" x="417" y="-266.65" font-family="Helvetica,sans-Serif" font-size="11.00"> &#160;&#160;&#160;</text>
</g>
<!-- feat_eng&#45;&gt;base -->
<g id="edge3" class="edge">
<title>feat_eng&#45;&gt;base</title>
<path fill="none" stroke="black" d="M338.81,-364.22C336.16,-353.76 334.52,-342.07 336,-331.22 336.55,-327.14 337.33,-322.94 338.25,-318.76"/>
<polygon fill="black" stroke="black" points="340.92,-319.62 340.08,-311.19 335.48,-318.31 340.92,-319.62"/>
<text xml:space="preserve" text-anchor="middle" x="363" y="-332.97" font-family="Helvetica,sans-Serif" font-size="10.00">128 features</text>
</g>
<!-- gate -->
<g id="node6" class="node">
<title>gate</title>
<polygon fill="#ffedd5" stroke="black" stroke-width="1.3" stroke-dasharray="5,2" points="713,-309.22 497,-309.22 497,-242.98 713,-242.98 713,-309.22"/>
<text xml:space="preserve" text-anchor="start" x="561.5" y="-277.65" font-family="Helvetica,sans-Serif" font-size="11.00"> &#160;&#160;&#160;&#160;&#160;</text>
<text xml:space="preserve" text-anchor="start" x="579.5" y="-277.65" font-family="Helvetica,sans-Serif" font-weight="bold" font-size="11.00">ACAGN&#45;Gate</text>
<text xml:space="preserve" text-anchor="start" x="539" y="-266.65" font-family="Helvetica,sans-Serif" font-size="11.00"> &#160;&#160;&#160;&#160;&#160;</text>
<text xml:space="preserve" text-anchor="start" x="557" y="-266.65" font-family="Helvetica,sans-Serif" font-size="10.00">gates + MLP + isotonic</text>
<text xml:space="preserve" text-anchor="start" x="659" y="-266.65" font-family="Helvetica,sans-Serif" font-size="11.00"> &#160;&#160;&#160;</text>
<text xml:space="preserve" text-anchor="start" x="390.5" y="-311.77" font-family="Helvetica,sans-Serif" font-size="11.00"> &#160;&#160;&#160;&#160;&#160;</text>
<text xml:space="preserve" text-anchor="start" x="408.5" y="-311.77" font-family="Helvetica,sans-Serif" font-size="10.00">Core Contribution</text>
<text xml:space="preserve" text-anchor="start" x="485" y="-311.77" font-family="Helvetica,sans-Serif" font-size="11.00"> &#160;&#160;&#160;</text>
</g>
<!-- feat_eng&#45;&gt;gate -->
<g id="edge5" class="edge">
<title>feat_eng&#45;&gt;gate</title>
<path fill="none" stroke="black" d="M380.48,-364.27C392.67,-352.48 407.56,-339.92 423,-331.22 435.44,-324.21 460.3,-315.75 487.75,-307.62"/>
<polygon fill="black" stroke="black" points="488.39,-310.35 495.29,-305.42 486.82,-304.97 488.39,-310.35"/>
<text xml:space="preserve" text-anchor="middle" x="450" y="-332.97" font-family="Helvetica,sans-Serif" font-size="10.00">160 features</text>
</g>
<!-- ct5_embed&#45;&gt;base -->
<g id="edge4" class="edge">
<title>ct5_embed&#45;&gt;base</title>
<path fill="none" stroke="black" d="M548.32,-363.97C528.53,-353.06 506.02,-341.15 485,-331.22 472.04,-325.1 458.19,-319.01 444.49,-313.25"/>
<polygon fill="black" stroke="black" points="445.85,-310.78 437.38,-310.29 443.69,-315.95 445.85,-310.78"/>
<text xml:space="preserve" text-anchor="middle" x="531.7" y="-332.97" font-family="Helvetica,sans-Serif" font-size="10.00">512&#45;dim vec</text>
</g>
<!-- ct5_embed&#45;&gt;gate -->
<g id="edge6" class="edge">
<title>ct5_embed&#45;&gt;gate</title>
<path fill="none" stroke="black" d="M605,-364.25C605,-350.31 605,-333.82 605,-318.95"/>
<polygon fill="black" stroke="black" points="607.8,-318.98 605,-310.98 602.2,-318.98 607.8,-318.98"/>
<text xml:space="preserve" text-anchor="middle" x="631.62" y="-332.97" font-family="Helvetica,sans-Serif" font-size="10.00">512&#45;dim vec</text>
</g>
<!-- hybrid -->
<g id="node7" class="node">
<title>hybrid</title>
<polygon fill="#ffedd5" stroke="black" points="588,-187.73 372,-187.73 372,-121.49 588,-121.49 588,-187.73"/>
<text xml:space="preserve" text-anchor="start" x="430.88" y="-156.16" font-family="Helvetica,sans-Serif" font-size="11.00"> &#160;&#160;&#160;&#160;&#160;</text>
<text xml:space="preserve" text-anchor="start" x="448.88" y="-156.16" font-family="Helvetica,sans-Serif" font-weight="bold" font-size="11.00">ACAGN&#45;Hybrid</text>
<text xml:space="preserve" text-anchor="start" x="417.75" y="-145.16" font-family="Helvetica,sans-Serif" font-size="11.00"> &#160;&#160;&#160;&#160;&#160;</text>
<text xml:space="preserve" text-anchor="start" x="435.75" y="-145.16" font-family="Helvetica,sans-Serif" font-size="10.00">0.5×Base + 0.5×Gate</text>
<text xml:space="preserve" text-anchor="start" x="530.25" y="-145.16" font-family="Helvetica,sans-Serif" font-size="11.00"> &#160;&#160;&#160;</text>
</g>
<!-- base&#45;&gt;hybrid -->
<g id="edge7" class="edge">
<title>base&#45;&gt;hybrid</title>
<path fill="none" stroke="black" d="M385.91,-242.76C402.11,-227.75 421.5,-209.8 438.45,-194.09"/>
<polygon fill="black" stroke="black" points="439.99,-196.49 443.95,-189 436.18,-192.38 439.99,-196.49"/>
<text xml:space="preserve" text-anchor="middle" x="441.87" y="-211.48" font-family="Helvetica,sans-Serif" font-size="10.00">calib. prob</text>
</g>
<!-- shap -->
<g id="node10" class="node">
<title>shap</title>
<polygon fill="#dbeafe" stroke="black" points="216,-66.24 0,-66.24 0,0 216,0 216,-66.24"/>
<text xml:space="preserve" text-anchor="start" x="50.62" y="-34.67" font-family="Helvetica,sans-Serif" font-size="11.00"> &#160;&#160;&#160;&#160;&#160;</text>
<text xml:space="preserve" text-anchor="start" x="68.62" y="-34.67" font-family="Helvetica,sans-Serif" font-weight="bold" font-size="11.00">SHAP Explanation</text>
<text xml:space="preserve" text-anchor="start" x="55.88" y="-23.67" font-family="Helvetica,sans-Serif" font-size="11.00"> &#160;&#160;&#160;&#160;&#160;</text>
<text xml:space="preserve" text-anchor="start" x="73.88" y="-23.67" font-family="Helvetica,sans-Serif" font-size="10.00">tree explanations</text>
<text xml:space="preserve" text-anchor="start" x="148.12" y="-23.67" font-family="Helvetica,sans-Serif" font-size="11.00"> &#160;&#160;&#160;</text>
</g>
<!-- base&#45;&gt;shap -->
<g id="edge11" class="edge">
<title>base&#45;&gt;shap</title>
<path fill="none" stroke="black" d="M318.23,-242.6C273.81,-198.55 194.6,-120 147.12,-72.92"/>
<polygon fill="black" stroke="black" points="149.37,-71.2 141.71,-67.55 145.42,-75.18 149.37,-71.2"/>
<text xml:space="preserve" text-anchor="middle" x="290.06" y="-150.74" font-family="Helvetica,sans-Serif" font-size="10.00">model + data</text>
</g>
<!-- gate&#45;&gt;hybrid -->
<g id="edge8" class="edge">
<title>gate&#45;&gt;hybrid</title>
<path fill="none" stroke="black" d="M570.84,-242.45C555.41,-227.7 537.05,-210.15 520.89,-194.7"/>
<polygon fill="black" stroke="black" points="522.93,-192.77 515.21,-189.27 519.06,-196.82 522.93,-192.77"/>
<text xml:space="preserve" text-anchor="middle" x="568.75" y="-211.48" font-family="Helvetica,sans-Serif" font-size="10.00">calib. prob</text>
</g>
<!-- gate_expl -->
<g id="node11" class="node">
<title>gate_expl</title>
<polygon fill="#dcfce7" stroke="black" points="960,-66.24 744,-66.24 744,0 960,0 960,-66.24"/>
<text xml:space="preserve" text-anchor="start" x="778.12" y="-34.67" font-family="Helvetica,sans-Serif" font-size="11.00"> &#160;&#160;&#160;&#160;&#160;</text>
<text xml:space="preserve" text-anchor="start" x="796.12" y="-34.67" font-family="Helvetica,sans-Serif" font-weight="bold" font-size="11.00">Gate&#45;Weight Explanation</text>
<text xml:space="preserve" text-anchor="start" x="796.12" y="-23.67" font-family="Helvetica,sans-Serif" font-size="11.00"> &#160;&#160;&#160;&#160;&#160;</text>
<text xml:space="preserve" text-anchor="start" x="814.12" y="-23.67" font-family="Helvetica,sans-Serif" font-size="10.00">per&#45;feature gates g</text>
<text xml:space="preserve" text-anchor="start" x="895.88" y="-23.67" font-family="Helvetica,sans-Serif" font-size="11.00"> &#160;&#160;&#160;</text>
</g>
<!-- gate&#45;&gt;gate_expl -->
<g id="edge12" class="edge">
<title>gate&#45;&gt;gate_expl</title>
<path fill="none" stroke="black" d="M638.57,-242.35C683.79,-198.23 764.16,-119.82 812.32,-72.83"/>
<polygon fill="black" stroke="black" points="814.05,-75.06 817.82,-67.47 810.13,-71.05 814.05,-75.06"/>
<text xml:space="preserve" text-anchor="middle" x="788.84" y="-150.74" font-family="Helvetica,sans-Serif" font-size="10.00">gate weights</text>
</g>
<!-- risk_score -->
<g id="node8" class="node">
<title>risk_score</title>
<polygon fill="#ffedd5" stroke="black" points="464,-66.24 248,-66.24 248,0 464,0 464,-66.24"/>
<text xml:space="preserve" text-anchor="start" x="318.5" y="-34.67" font-family="Helvetica,sans-Serif" font-size="11.00"> &#160;&#160;&#160;&#160;&#160;</text>
<text xml:space="preserve" text-anchor="start" x="336.5" y="-34.67" font-family="Helvetica,sans-Serif" font-weight="bold" font-size="11.00">Risk Score</text>
<text xml:space="preserve" text-anchor="start" x="309.5" y="-23.67" font-family="Helvetica,sans-Serif" font-size="11.00"> &#160;&#160;&#160;&#160;&#160;</text>
<text xml:space="preserve" text-anchor="start" x="327.5" y="-23.67" font-family="Helvetica,sans-Serif" font-size="10.00">probability 0–1</text>
<text xml:space="preserve" text-anchor="start" x="390.5" y="-23.67" font-family="Helvetica,sans-Serif" font-size="11.00"> &#160;&#160;&#160;</text>
</g>
<!-- hybrid&#45;&gt;risk_score -->
<g id="edge9" class="edge">
<title>hybrid&#45;&gt;risk_score</title>
<path fill="none" stroke="black" d="M446.44,-121.27C431.01,-106.4 412.56,-88.62 396.37,-73.02"/>
<polygon fill="black" stroke="black" points="398.38,-71.07 390.67,-67.53 394.49,-75.1 398.38,-71.07"/>
<text xml:space="preserve" text-anchor="middle" x="433.72" y="-89.99" font-family="Helvetica,sans-Serif" font-size="10.00">risk p̂</text>
</g>
<!-- threshold_sel -->
<g id="node9" class="node">
<title>threshold_sel</title>
<polygon fill="#ffedd5" stroke="black" points="712,-66.24 496,-66.24 496,0 712,0 712,-66.24"/>
<text xml:space="preserve" text-anchor="start" x="542.5" y="-34.67" font-family="Helvetica,sans-Serif" font-size="11.00"> &#160;&#160;&#160;&#160;&#160;</text>
<text xml:space="preserve" text-anchor="start" x="560.5" y="-34.67" font-family="Helvetica,sans-Serif" font-weight="bold" font-size="11.00">Threshold Selection</text>
<text xml:space="preserve" text-anchor="start" x="551.12" y="-23.67" font-family="Helvetica,sans-Serif" font-size="11.00"> &#160;&#160;&#160;&#160;&#160;</text>
<text xml:space="preserve" text-anchor="start" x="569.12" y="-23.67" font-family="Helvetica,sans-Serif" font-size="10.00">MCC / F1 / recall</text>
<text xml:space="preserve" text-anchor="start" x="644.88" y="-23.67" font-family="Helvetica,sans-Serif" font-size="11.00"> &#160;&#160;&#160;</text>
</g>
<!-- hybrid&#45;&gt;threshold_sel -->
<g id="edge10" class="edge">
<title>hybrid&#45;&gt;threshold_sel</title>
<path fill="none" stroke="black" d="M513.56,-121.27C528.99,-106.4 547.44,-88.62 563.63,-73.02"/>
<polygon fill="black" stroke="black" points="565.51,-75.1 569.33,-67.53 561.62,-71.07 565.51,-75.1"/>
<text xml:space="preserve" text-anchor="middle" x="571.22" y="-89.99" font-family="Helvetica,sans-Serif" font-size="10.00">operating pt</text>
</g>
</g>
</svg>
