<?xml version="1.0" encoding="UTF-8" standalone="no"?>
<!DOCTYPE svg PUBLIC "-//W3C//DTD SVG 1.1//EN"
 "http://www.w3.org/Graphics/SVG/1.1/DTD/svg11.dtd">
<!-- Generated by graphviz version 14.1.4 (20260321.0153)
 -->
<!-- Title: G Pages: 1 -->
<svg width="1887pt" height="4808pt"
 viewBox="0.00 0.00 1887.00 4808.00" xmlns="http://www.w3.org/2000/svg" xmlns:xlink="http://www.w3.org/1999/xlink">
<g id="graph0" class="graph" transform="scale(4.16667 4.16667) rotate(0) translate(4 1149.9)">
<title>G</title>
<polygon fill="white" stroke="none" points="-4,4 -4,-1149.9 448.77,-1149.9 448.77,4 -4,4"/>
<!-- InL -->
<g id="node1" class="node">
<title>InL</title>
<polygon fill="#e6f2ff" stroke="#0066cc" points="82.05,-1145.9 0,-1145.9 0,-1109.9 82.05,-1109.9 82.05,-1145.9"/>
<text xml:space="preserve" text-anchor="start" x="17.78" y="-1128.4" font-family="Arial" font-weight="bold" font-size="10.00">x</text>
<text xml:space="preserve" text-anchor="start" x="23.03" y="-1128.4" font-family="Arial" font-weight="bold" baseline-shift="sub" font-size="10.00">structured</text>
<text xml:space="preserve" text-anchor="start" x="14.4" y="-1120.3" font-family="Arial" font-size="8.00">160&#45;dim vector</text>
</g>
<!-- Mult -->
<g id="node7" class="node">
<title>Mult</title>
<ellipse fill="#ffffff" stroke="#000000" stroke-width="2" cx="234.03" cy="-723.7" rx="14.4" ry="14.4"/>
<text xml:space="preserve" text-anchor="middle" x="234.03" y="-715.2" font-family="Arial" font-size="20.00">⊙</text>
</g>
<!-- InL&#45;&gt;Mult -->
<g id="edge4" class="edge">
<title>InL&#45;&gt;Mult</title>
<path fill="none" stroke="#333333" d="M41.03,-1109.46C41.03,-1089.78 41.03,-1056.79 41.03,-1028.4 41.03,-1028.4 41.03,-1028.4 41.03,-825.4 41.03,-820.67 159.18,-761.69 210.59,-736.25"/>
<polygon fill="#333333" stroke="#333333" points="211.99,-739.47 219.4,-731.9 208.89,-733.19 211.99,-739.47"/>
<text xml:space="preserve" text-anchor="middle" x="81.53" y="-923.6" font-family="Arial" font-size="9.00"> 160&#45;dim structured </text>
</g>
<!-- InR -->
<g id="node2" class="node">
<title>InR</title>
<polygon fill="#e6ffe6" stroke="#009933" points="380.05,-1145.9 298,-1145.9 298,-1109.9 380.05,-1109.9 380.05,-1145.9"/>
<text xml:space="preserve" text-anchor="start" x="328.9" y="-1128.4" font-family="Arial" font-weight="bold" font-size="10.00">e</text>
<text xml:space="preserve" text-anchor="start" x="334.15" y="-1128.4" font-family="Arial" font-weight="bold" baseline-shift="sub" font-size="10.00">text</text>
<text xml:space="preserve" text-anchor="start" x="312.4" y="-1120.3" font-family="Arial" font-size="8.00">515&#45;dim vector</text>
</g>
<!-- G1 -->
<g id="node3" class="node">
<title>G1</title>
<polygon fill="#f9f9f9" stroke="#666666" points="301.05,-1045.4 177,-1045.4 177,-1009.4 301.05,-1009.4 301.05,-1045.4"/>
<text xml:space="preserve" text-anchor="start" x="191.4" y="-1027.9" font-family="Arial" font-weight="bold" font-size="10.00">Gate Module Layer 1</text>
<text xml:space="preserve" text-anchor="start" x="194.4" y="-1019.8" font-family="Arial" font-size="8.00">Linear(515→256), ReLU</text>
</g>
<!-- InR&#45;&gt;G1 -->
<g id="edge1" class="edge">
<title>InR&#45;&gt;G1</title>
<path fill="none" stroke="#333333" d="M317.77,-1109.47C308.48,-1101.6 297.6,-1092.04 288.27,-1082.9 279.02,-1073.84 269.36,-1063.39 261.07,-1054.08"/>
<polygon fill="#333333" stroke="#333333" points="263.83,-1051.92 254.6,-1046.72 258.58,-1056.54 263.83,-1051.92"/>
<text xml:space="preserve" text-anchor="middle" x="315.65" y="-1074.35" font-family="Arial" font-size="9.00"> 515&#45;dim text </text>
</g>
<!-- Concat -->
<g id="node9" class="node">
<title>Concat</title>
<polygon fill="#f2e6ff" stroke="#6600cc" points="372.55,-538.5 245.5,-538.5 245.5,-502.5 372.55,-502.5 372.55,-538.5"/>
<text xml:space="preserve" text-anchor="start" x="259.9" y="-521" font-family="Arial" font-weight="bold" font-size="10.00">Feature Combination</text>
<text xml:space="preserve" text-anchor="start" x="265.15" y="-512.9" font-family="Arial" font-size="8.00">Concatenate → 675&#45;dim</text>
</g>
<!-- InR&#45;&gt;Concat -->
<g id="edge8" class="edge">
<title>InR&#45;&gt;Concat</title>
<path fill="none" stroke="#333333" d="M352.53,-1109.48C365.78,-1090.6 384.02,-1059.05 384.02,-1028.4 384.02,-1028.4 384.02,-1028.4 384.02,-620 384.02,-590.42 362.35,-564.17 342.3,-546.23"/>
<polygon fill="#333333" stroke="#333333" points="344.62,-543.61 334.74,-539.8 340.09,-548.94 344.62,-543.61"/>
<text xml:space="preserve" text-anchor="middle" x="414.4" y="-823.1" font-family="Arial" font-size="9.00"> e_text bypass </text>
</g>
<!-- G2 -->
<g id="node4" class="node">
<title>G2</title>
<polygon fill="#f9f9f9" stroke="#666666" points="301.8,-944.9 176.25,-944.9 176.25,-908.9 301.8,-908.9 301.8,-944.9"/>
<text xml:space="preserve" text-anchor="start" x="191.4" y="-927.4" font-family="Arial" font-weight="bold" font-size="10.00">Gate Module Layer 2</text>
<text xml:space="preserve" text-anchor="start" x="190.65" y="-919.3" font-family="Arial" font-size="8.00">Linear(256→160), Sigmoid</text>
</g>
<!-- G1&#45;&gt;G2 -->
<g id="edge2" class="edge">
<title>G1&#45;&gt;G2</title>
<path fill="none" stroke="#333333" d="M239.03,-1009.24C239.03,-994.64 239.03,-973.38 239.03,-956.25"/>
<polygon fill="#333333" stroke="#333333" points="242.53,-956.7 239.03,-946.7 235.53,-956.7 242.53,-956.7"/>
<text xml:space="preserve" text-anchor="middle" x="273.52" y="-973.85" font-family="Arial" font-size="9.00"> 256&#45;dim hidden </text>
</g>
<!-- GV -->
<g id="node5" class="node">
<title>GV</title>
<polygon fill="#fff0e6" stroke="#cc5200" points="275.3,-844.4 194.75,-844.4 194.75,-808.4 275.3,-808.4 275.3,-844.4"/>
<text xml:space="preserve" text-anchor="start" x="209.15" y="-826.9" font-family="Arial" font-weight="bold" font-size="10.00">g ∈ (0,1)</text>
<text xml:space="preserve" text-anchor="start" x="247.4" y="-826.9" font-family="Arial" font-weight="bold" baseline-shift="super" font-size="10.00">160</text>
<text xml:space="preserve" text-anchor="start" x="215.15" y="-818.8" font-family="Arial" font-size="8.00">gate vector</text>
</g>
<!-- G2&#45;&gt;GV -->
<g id="edge3" class="edge">
<title>G2&#45;&gt;GV</title>
<path fill="none" stroke="#333333" d="M238.33,-908.74C237.74,-894.14 236.87,-872.88 236.18,-855.75"/>
<polygon fill="#333333" stroke="#333333" points="239.69,-856.05 235.79,-846.2 232.7,-856.34 239.69,-856.05"/>
<text xml:space="preserve" text-anchor="middle" x="275.77" y="-873.35" font-family="Arial" font-size="9.00"> 160&#45;dim bounded </text>
</g>
<!-- GV&#45;&gt;Mult -->
<g id="edge5" class="edge">
<title>GV&#45;&gt;Mult</title>
<path fill="none" stroke="#333333" d="M234.86,-808.32C234.7,-792.45 234.46,-768.61 234.28,-750.44"/>
<polygon fill="#333333" stroke="#333333" points="237.78,-750.41 234.18,-740.44 230.78,-750.48 237.78,-750.41"/>
<text xml:space="preserve" text-anchor="middle" x="266.46" y="-772.85" font-family="Arial" font-size="9.00"> gate weights g </text>
</g>
<!-- EqBox -->
<g id="node6" class="node">
<title>EqBox</title>
<polygon fill="#ffffe6" stroke="#cccc00" points="159.68,-743.9 24.38,-743.9 24.38,-703.5 165.68,-703.5 165.68,-737.9 159.68,-743.9"/>
<polyline fill="none" stroke="#cccc00" points="159.68,-743.9 159.68,-737.9"/>
<polyline fill="none" stroke="#cccc00" points="165.68,-737.9 159.68,-737.9"/>
<text xml:space="preserve" text-anchor="start" x="57.9" y="-728.2" font-family="Arial" font-weight="bold" font-size="10.00">Gate Equations:</text>
<text xml:space="preserve" text-anchor="start" x="38.78" y="-720.1" font-family="Arial" font-size="8.00">g = σ( W</text>
<text xml:space="preserve" text-anchor="start" x="70.28" y="-720.1" font-family="Arial" baseline-shift="sub" font-size="8.00">2</text>
<text xml:space="preserve" text-anchor="start" x="74.03" y="-720.1" font-family="Arial" font-size="8.00"> · ReLU( W</text>
<text xml:space="preserve" text-anchor="start" x="115.28" y="-720.1" font-family="Arial" baseline-shift="sub" font-size="8.00">1</text>
<text xml:space="preserve" text-anchor="start" x="119.03" y="-720.1" font-family="Arial" font-size="8.00"> · e</text>
<text xml:space="preserve" text-anchor="start" x="131.03" y="-720.1" font-family="Arial" baseline-shift="sub" font-size="8.00">text</text>
<text xml:space="preserve" text-anchor="start" x="140.78" y="-720.1" font-family="Arial" font-size="8.00"> ) )</text>
<text xml:space="preserve" text-anchor="start" x="55.65" y="-712.1" font-family="Arial" font-size="8.00">x</text>
<text xml:space="preserve" text-anchor="start" x="59.4" y="-712.1" font-family="Arial" baseline-shift="sub" font-size="8.00">gated</text>
<text xml:space="preserve" text-anchor="start" x="75.9" y="-712.1" font-family="Arial" font-size="8.00"> = g ⊙ x</text>
<text xml:space="preserve" text-anchor="start" x="105.9" y="-712.1" font-family="Arial" baseline-shift="sub" font-size="8.00">structured</text>
</g>
<!-- EqBox&#45;&gt;Mult -->
<!-- xgated -->
<g id="node8" class="node">
<title>xgated</title>
<polygon fill="#f2e6ff" stroke="#6600cc" points="302.43,-639 165.62,-639 165.62,-603 302.43,-603 302.43,-639"/>
<text xml:space="preserve" text-anchor="start" x="180.03" y="-621.5" font-family="Arial" font-weight="bold" font-size="10.00">x</text>
<text xml:space="preserve" text-anchor="start" x="185.28" y="-621.5" font-family="Arial" font-weight="bold" baseline-shift="sub" font-size="10.00">gated</text>
<text xml:space="preserve" text-anchor="start" x="207.78" y="-621.5" font-family="Arial" font-weight="bold" font-size="10.00"> = g ⊙ x</text>
<text xml:space="preserve" text-anchor="start" x="246.78" y="-621.5" font-family="Arial" font-weight="bold" baseline-shift="sub" font-size="10.00">structured</text>
<text xml:space="preserve" text-anchor="start" x="207.4" y="-613.4" font-family="Arial" font-size="8.00">160&#45;dim vector</text>
</g>
<!-- Mult&#45;&gt;xgated -->
<g id="edge6" class="edge">
<title>Mult&#45;&gt;xgated</title>
<path fill="none" stroke="#333333" d="M234.03,-708.7C234.03,-693.73 234.03,-669.59 234.03,-650.58"/>
<polygon fill="#333333" stroke="#333333" points="237.53,-650.77 234.03,-640.77 230.53,-650.77 237.53,-650.77"/>
<text xml:space="preserve" text-anchor="middle" x="281.65" y="-667.95" font-family="Arial" font-size="9.00"> 160&#45;dim element&#45;wise </text>
</g>
<!-- xgated&#45;&gt;Concat -->
<g id="edge7" class="edge">
<title>xgated&#45;&gt;Concat</title>
<path fill="none" stroke="#333333" d="M247.09,-602.84C258.63,-587.68 275.65,-565.33 288.93,-547.9"/>
<polygon fill="#333333" stroke="#333333" points="291.67,-550.07 294.94,-540 286.1,-545.83 291.67,-550.07"/>
<text xml:space="preserve" text-anchor="middle" x="305.27" y="-567.45" font-family="Arial" font-size="9.00"> gated features </text>
</g>
<!-- FC1 -->
<g id="node10" class="node">
<title>FC1</title>
<polygon fill="#f9f9f9" stroke="#666666" points="379.67,-438 238.37,-438 238.37,-402 379.67,-402 379.67,-438"/>
<text xml:space="preserve" text-anchor="start" x="287.65" y="-420.5" font-family="Arial" font-weight="bold" font-size="10.00">MLP FC1</text>
<text xml:space="preserve" text-anchor="start" x="252.77" y="-412.4" font-family="Arial" font-size="8.00">675→512, BN, ReLU, Drop 0.3</text>
</g>
<!-- Concat&#45;&gt;FC1 -->
<g id="edge9" class="edge">
<title>Concat&#45;&gt;FC1</title>
<path fill="none" stroke="#333333" d="M309.02,-502.34C309.02,-487.74 309.02,-466.48 309.02,-449.35"/>
<polygon fill="#333333" stroke="#333333" points="312.53,-449.8 309.03,-439.8 305.53,-449.8 312.53,-449.8"/>
<text xml:space="preserve" text-anchor="middle" x="341.65" y="-466.95" font-family="Arial" font-size="9.00"> 675&#45;dim vector </text>
</g>
<!-- FC2 -->
<g id="node11" class="node">
<title>FC2</title>
<polygon fill="#f9f9f9" stroke="#666666" points="379.67,-337.5 238.37,-337.5 238.37,-301.5 379.67,-301.5 379.67,-337.5"/>
<text xml:space="preserve" text-anchor="start" x="287.65" y="-320" font-family="Arial" font-weight="bold" font-size="10.00">MLP FC2</text>
<text xml:space="preserve" text-anchor="start" x="252.77" y="-311.9" font-family="Arial" font-size="8.00">512→256, BN, ReLU, Drop 0.3</text>
</g>
<!-- FC1&#45;&gt;FC2 -->
<g id="edge10" class="edge">
<title>FC1&#45;&gt;FC2</title>
<path fill="none" stroke="#333333" d="M309.02,-401.84C309.02,-387.24 309.02,-365.98 309.02,-348.85"/>
<polygon fill="#333333" stroke="#333333" points="312.53,-349.3 309.03,-339.3 305.53,-349.3 312.53,-349.3"/>
<text xml:space="preserve" text-anchor="middle" x="342.02" y="-366.45" font-family="Arial" font-size="9.00"> 512&#45;dim output </text>
</g>
<!-- FC3 -->
<g id="node12" class="node">
<title>FC3</title>
<polygon fill="#f9f9f9" stroke="#666666" points="371.8,-237 246.25,-237 246.25,-201 371.8,-201 371.8,-237"/>
<text xml:space="preserve" text-anchor="start" x="287.65" y="-219.5" font-family="Arial" font-weight="bold" font-size="10.00">MLP FC3</text>
<text xml:space="preserve" text-anchor="start" x="260.65" y="-211.4" font-family="Arial" font-size="8.00">256→128, ReLU, Drop 0.2</text>
</g>
<!-- FC2&#45;&gt;FC3 -->
<g id="edge11" class="edge">
<title>FC2&#45;&gt;FC3</title>
<path fill="none" stroke="#333333" d="M309.02,-301.34C309.02,-286.74 309.02,-265.48 309.02,-248.35"/>
<polygon fill="#333333" stroke="#333333" points="312.53,-248.8 309.03,-238.8 305.53,-248.8 312.53,-248.8"/>
<text xml:space="preserve" text-anchor="middle" x="342.02" y="-265.95" font-family="Arial" font-size="9.00"> 256&#45;dim output </text>
</g>
<!-- OutL -->
<g id="node13" class="node">
<title>OutL</title>
<polygon fill="#f9f9f9" stroke="#666666" points="353.42,-136.5 264.62,-136.5 264.62,-100.5 353.42,-100.5 353.42,-136.5"/>
<text xml:space="preserve" text-anchor="start" x="279.02" y="-119" font-family="Arial" font-weight="bold" font-size="10.00">Output Layer</text>
<text xml:space="preserve" text-anchor="start" x="279.4" y="-110.9" font-family="Arial" font-size="8.00">128→1, Sigmoid</text>
</g>
<!-- FC3&#45;&gt;OutL -->
<g id="edge12" class="edge">
<title>FC3&#45;&gt;OutL</title>
<path fill="none" stroke="#333333" d="M309.02,-200.84C309.02,-186.24 309.02,-164.98 309.02,-147.85"/>
<polygon fill="#333333" stroke="#333333" points="312.53,-148.3 309.03,-138.3 305.53,-148.3 312.53,-148.3"/>
<text xml:space="preserve" text-anchor="middle" x="342.02" y="-165.45" font-family="Arial" font-size="9.00"> 128&#45;dim output </text>
</g>
<!-- Yhat -->
<g id="node14" class="node">
<title>Yhat</title>
<polygon fill="#fff0e6" stroke="#cc5200" points="351.92,-36 266.12,-36 266.12,0 351.92,0 351.92,-36"/>
<text xml:space="preserve" text-anchor="start" x="306.4" y="-18.5" font-family="Arial" font-weight="bold" font-size="10.00">ŷ</text>
<text xml:space="preserve" text-anchor="start" x="280.52" y="-10.4" font-family="Arial" font-size="8.00">readmission risk</text>
</g>
<!-- OutL&#45;&gt;Yhat -->
<g id="edge13" class="edge">
<title>OutL&#45;&gt;Yhat</title>
<path fill="none" stroke="#333333" d="M309.02,-100.34C309.02,-85.74 309.02,-64.48 309.02,-47.35"/>
<polygon fill="#333333" stroke="#333333" points="312.53,-47.8 309.03,-37.8 305.53,-47.8 312.53,-47.8"/>
<text xml:space="preserve" text-anchor="middle" x="332.65" y="-64.95" font-family="Arial" font-size="9.00"> probability </text>
</g>
</g>
</svg>
