<?xml version="1.0" encoding="UTF-8" standalone="no"?>
<!DOCTYPE svg PUBLIC "-//W3C//DTD SVG 1.1//EN"
 "http://www.w3.org/Graphics/SVG/1.1/DTD/svg11.dtd">
<!-- Generated by graphviz version 14.1.4 (20260321.0153)
 -->
<!-- Title: G Pages: 1 -->
<svg width="2332pt" height="1858pt"
 viewBox="0.00 0.00 2332.00 1858.00" xmlns="http://www.w3.org/2000/svg" xmlns:xlink="http://www.w3.org/1999/xlink">
<g id="graph0" class="graph" transform="scale(4.16667 4.16667) rotate(0) translate(4 442)">
<title>G</title>
<polygon fill="white" stroke="none" points="-4,4 -4,-442 555.67,-442 555.67,4 -4,4"/>
<!-- D1 -->
<g id="node1" class="node">
<title>D1</title>
<polygon fill="#e6f2ff" stroke="#0066cc" points="269.42,-438 47.12,-438 47.12,-402 269.42,-402 269.42,-438"/>
<text xml:space="preserve" text-anchor="start" x="94.52" y="-420.5" font-family="Arial" font-weight="bold" font-size="10.00">MIMIC&#45;IV Structured Tables</text>
<text xml:space="preserve" text-anchor="start" x="61.52" y="-412.4" font-family="Arial" font-size="8.00">admissions, patients, DRG codes, transfers, vitals, labs</text>
</g>
<!-- P1 -->
<g id="node3" class="node">
<title>P1</title>
<polygon fill="#e6f2ff" stroke="#0066cc" points="245.8,-337.5 70.75,-337.5 70.75,-301.5 245.8,-301.5 245.8,-337.5"/>
<text xml:space="preserve" text-anchor="start" x="85.15" y="-320" font-family="Arial" font-weight="bold" font-size="10.00">Structured Feature Engineering</text>
<text xml:space="preserve" text-anchor="start" x="102.4" y="-311.9" font-family="Arial" font-size="8.00">675 candidates → 128 selected</text>
</g>
<!-- D1&#45;&gt;P1 -->
<g id="edge1" class="edge">
<title>D1&#45;&gt;P1</title>
<path fill="none" stroke="#333333" d="M158.27,-401.84C158.27,-387.24 158.27,-365.98 158.27,-348.85"/>
<polygon fill="#333333" stroke="#333333" points="161.78,-349.3 158.28,-339.3 154.78,-349.3 161.78,-349.3"/>
<text xml:space="preserve" text-anchor="middle" x="199.52" y="-366.45" font-family="Arial" font-size="9.00"> raw structured data </text>
</g>
<!-- D2 -->
<g id="node2" class="node">
<title>D2</title>
<polygon fill="#e6ffe6" stroke="#009933" points="526.55,-438 356,-438 356,-402 526.55,-402 526.55,-438"/>
<text xml:space="preserve" text-anchor="start" x="370.4" y="-420.5" font-family="Arial" font-weight="bold" font-size="10.00">Clinical Notes (MIMIC&#45;IV&#45;Note)</text>
<text xml:space="preserve" text-anchor="start" x="371.15" y="-412.4" font-family="Arial" font-size="8.00">discharge summaries, radiology reports</text>
</g>
<!-- P2 -->
<g id="node4" class="node">
<title>P2</title>
<polygon fill="#e6ffe6" stroke="#009933" points="551.67,-337.5 330.87,-337.5 330.87,-301.5 551.67,-301.5 551.67,-337.5"/>
<text xml:space="preserve" text-anchor="start" x="389.15" y="-320" font-family="Arial" font-weight="bold" font-size="10.00">ClinicalT5 Embedding</text>
<text xml:space="preserve" text-anchor="start" x="345.27" y="-311.9" font-family="Arial" font-size="8.00">200&#45;word chunking, mean pooling → 512&#45;dim → PCA</text>
</g>
<!-- D2&#45;&gt;P2 -->
<g id="edge2" class="edge">
<title>D2&#45;&gt;P2</title>
<path fill="none" stroke="#333333" d="M441.27,-401.84C441.27,-387.24 441.27,-365.98 441.27,-348.85"/>
<polygon fill="#333333" stroke="#333333" points="444.78,-349.3 441.28,-339.3 437.78,-349.3 444.78,-349.3"/>
<text xml:space="preserve" text-anchor="middle" x="474.65" y="-366.45" font-family="Arial" font-size="9.00"> raw clinical text </text>
</g>
<!-- M1 -->
<g id="node5" class="node">
<title>M1</title>
<polygon fill="#e6f2ff" stroke="#0066cc" points="254.55,-237 0,-237 0,-201 254.55,-201 254.55,-237"/>
<text xml:space="preserve" text-anchor="start" x="95.4" y="-219.5" font-family="Arial" font-weight="bold" font-size="10.00">ACAGN&#45;Base</text>
<text xml:space="preserve" text-anchor="start" x="14.4" y="-211.4" font-family="Arial" font-size="8.00">LightGBM, XGBoost, CatBoost, LR Meta&#45;learner, Isotonic Calib.</text>
</g>
<!-- P1&#45;&gt;M1 -->
<g id="edge3" class="edge">
<title>P1&#45;&gt;M1</title>
<path fill="none" stroke="#333333" d="M137.62,-301.33C130.28,-293.93 122.89,-284.64 119.02,-274.5 115.88,-266.26 116.07,-256.9 117.6,-248.28"/>
<polygon fill="#333333" stroke="#333333" points="120.98,-249.19 119.97,-238.64 114.18,-247.52 120.98,-249.19"/>
<text xml:space="preserve" text-anchor="middle" x="168.15" y="-265.95" font-family="Arial" font-size="9.00"> 128 structured features </text>
</g>
<!-- M2 -->
<g id="node6" class="node">
<title>M2</title>
<polygon fill="#fff0e6" stroke="#cc5200" points="446.42,-237 308.12,-237 308.12,-201 446.42,-201 446.42,-237"/>
<text xml:space="preserve" text-anchor="start" x="346.52" y="-219.5" font-family="Arial" font-weight="bold" font-size="10.00">ACAGN&#45;Gate</text>
<text xml:space="preserve" text-anchor="start" x="322.52" y="-211.4" font-family="Arial" font-size="8.00">Gate Network + MLP Classifier</text>
</g>
<!-- P1&#45;&gt;M2 -->
<g id="edge4" class="edge">
<title>P1&#45;&gt;M2</title>
<path fill="none" stroke="#333333" d="M197.18,-301C233.65,-284.6 288.36,-259.99 327.9,-242.21"/>
<polygon fill="#333333" stroke="#333333" points="329.3,-245.41 336.99,-238.12 326.43,-239.03 329.3,-245.41"/>
<text xml:space="preserve" text-anchor="middle" x="323.47" y="-265.95" font-family="Arial" font-size="9.00"> 128 structured features </text>
</g>
<!-- P2&#45;&gt;M2 -->
<g id="edge5" class="edge">
<title>P2&#45;&gt;M2</title>
<path fill="none" stroke="#333333" d="M430.13,-301.34C420.37,-286.32 406.02,-264.25 394.74,-246.88"/>
<polygon fill="#333333" stroke="#333333" points="397.72,-245.04 389.33,-238.56 391.85,-248.85 397.72,-245.04"/>
<text xml:space="preserve" text-anchor="middle" x="443.82" y="-265.95" font-family="Arial" font-size="9.00"> 512&#45;dim vector </text>
</g>
<!-- H1 -->
<g id="node7" class="node">
<title>H1</title>
<polygon fill="#fff0e6" stroke="#cc5200" points="309.05,-136.5 195.5,-136.5 195.5,-100.5 309.05,-100.5 309.05,-136.5"/>
<text xml:space="preserve" text-anchor="start" x="216.27" y="-119" font-family="Arial" font-weight="bold" font-size="10.00">ACAGN&#45;Hybrid</text>
<text xml:space="preserve" text-anchor="start" x="209.9" y="-110.9" font-family="Arial" font-size="8.00">0.5 × Base + 0.5 × Gate</text>
</g>
<!-- M1&#45;&gt;H1 -->
<g id="edge6" class="edge">
<title>M1&#45;&gt;H1</title>
<path fill="none" stroke="#333333" d="M149.33,-200.62C169.42,-184.79 199.26,-161.28 221.65,-143.63"/>
<polygon fill="#333333" stroke="#333333" points="223.56,-146.58 229.25,-137.65 219.23,-141.09 223.56,-146.58"/>
<text xml:space="preserve" text-anchor="middle" x="226.9" y="-165.45" font-family="Arial" font-size="9.00"> base&#45;risk score </text>
</g>
<!-- M2&#45;&gt;H1 -->
<g id="edge7" class="edge">
<title>M2&#45;&gt;H1</title>
<path fill="none" stroke="#333333" d="M355.22,-200.62C335.13,-184.79 305.29,-161.28 282.9,-143.63"/>
<polygon fill="#333333" stroke="#333333" points="285.32,-141.09 275.3,-137.65 280.99,-146.58 285.32,-141.09"/>
<text xml:space="preserve" text-anchor="middle" x="363.52" y="-165.45" font-family="Arial" font-size="9.00"> calibrated probability </text>
</g>
<!-- O1 -->
<g id="node8" class="node">
<title>O1</title>
<polygon fill="#fff0e6" stroke="#cc5200" points="383.3,-36 121.25,-36 121.25,0 383.3,0 383.3,-36"/>
<text xml:space="preserve" text-anchor="start" x="217.4" y="-18.5" font-family="Arial" font-weight="bold" font-size="10.00">Risk Score 0–1</text>
<text xml:space="preserve" text-anchor="start" x="135.65" y="-10.4" font-family="Arial" font-size="8.00">Threshold Selection, SHAP Explanation, Gate&#45;Weight Explanation</text>
</g>
<!-- H1&#45;&gt;O1 -->
<g id="edge8" class="edge">
<title>H1&#45;&gt;O1</title>
<path fill="none" stroke="#333333" d="M252.27,-100.34C252.27,-85.74 252.27,-64.48 252.27,-47.35"/>
<polygon fill="#333333" stroke="#333333" points="255.78,-47.8 252.28,-37.8 248.78,-47.8 255.78,-47.8"/>
<text xml:space="preserve" text-anchor="middle" x="285.65" y="-64.95" font-family="Arial" font-size="9.00"> final probability </text>
</g>
</g>
</svg>
